<?xml version="1.0" encoding="UTF-8" standalone="no"?>
<!-- Created with Inkscape (http://www.inkscape.org/) -->

<svg
   xmlns:dc="http://purl.org/dc/elements/1.1/"
   xmlns:cc="http://creativecommons.org/ns#"
   xmlns:rdf="http://www.w3.org/1999/02/22-rdf-syntax-ns#"
   xmlns:svg="http://www.w3.org/2000/svg"
   xmlns="http://www.w3.org/2000/svg"
   xmlns:sodipodi="http://sodipodi.sourceforge.net/DTD/sodipodi-0.dtd"
   xmlns:inkscape="http://www.inkscape.org/namespaces/inkscape"
   width="24"
   height="24"
   id="svg2"
   version="1.1"
   inkscape:version="0.48.3.1 r9886"
   sodipodi:docname="Nuevo documento 1">
  <defs
     id="defs4">
    <inkscape:perspective
       id="perspective15"
       inkscape:persp3d-origin="210 : 158.33333 : 1"
       inkscape:vp_z="420 : 237.5 : 1"
       inkscape:vp_y="0 : 1000 : 0"
       inkscape:vp_x="0 : 237.5 : 1"
       sodipodi:type="inkscape:persp3d" />
  </defs>
  <sodipodi:namedview
     id="base"
     pagecolor="#ffffff"
     bordercolor="#666666"
     borderopacity="1.0"
     inkscape:pageopacity="0.0"
     inkscape:pageshadow="2"
     inkscape:zoom="7.9195959"
     inkscape:cx="10.360612"
     inkscape:cy="11.947021"
     inkscape:document-units="px"
     inkscape:current-layer="layer1"
     showgrid="false"
     inkscape:window-width="1366"
     inkscape:window-height="684"
     inkscape:window-x="0"
     inkscape:window-y="31"
     inkscape:window-maximized="1" />
  <metadata
     id="metadata7">
    <rdf:RDF>
      <cc:Work
         rdf:about="">
        <dc:format>image/svg+xml</dc:format>
        <dc:type
           rdf:resource="http://purl.org/dc/dcmitype/StillImage" />
        <dc:title></dc:title>
      </cc:Work>
    </rdf:RDF>
  </metadata>
  <g
     inkscape:label="Capa 1"
     inkscape:groupmode="layer"
     id="layer1"
     transform="translate(0,-1028.3622)">
    <path
       inkscape:connector-curvature="0"
       style="font-size:256px;font-style:normal;font-variant:normal;font-weight:normal;font-stretch:normal;text-align:start;line-height:100%;writing-mode:lr-tb;text-anchor:start;fill:#000000;fill-opacity:1;stroke:none;font-family:Palatino Linotype"
       d="m 12.227603,1039.0344 c 0.903517,-0.8692 1.772736,-1.6069 2.607658,-2.2131 0.834893,-0.6176 1.538273,-1.0293 2.110146,-1.2352 0.571837,-0.2059 1.195158,-0.3088 1.869966,-0.3088 1.418179,0 2.561889,0.4746 3.43113,1.4239 0.880633,0.9379 1.320961,2.0759 1.320984,3.414 -2.3e-5,0.9149 -0.194454,1.7613 -0.583291,2.539 -0.388885,0.7778 -0.943583,1.3668 -1.664099,1.7671 -0.70912,0.4002 -1.526873,0.6004 -2.453257,0.6004 -1.200914,0 -2.253126,-0.2573 -3.15664,-0.772 -0.892109,-0.5147 -2.052974,-1.4868 -3.482597,-2.9165 -1.486834,1.4755 -2.6705728,2.4591 -3.5512196,2.9509 -0.8806654,0.4917 -1.9042852,0.7376 -3.0708623,0.7376 -1.4868276,0 -2.6476915,-0.4632 -3.4825969,-1.3896 -0.8234724,-0.9264 -1.23520826,-2.0987 -1.2352066,-3.5169 -1.66e-6,-1.3267 0.4346082,-2.4647 1.3038295,-3.414 0.8806534,-0.9493 2.0300804,-1.4239 3.4482859,-1.4239 0.6862192,0 1.3152591,0.1029 1.8871214,0.3088 0.5718465,0.2059 1.269509,0.6176 2.0929897,1.2352 0.8348969,0.6062 1.7041159,1.3439 2.6076589,2.2131 m 1.115117,1.0637 c 1.212318,1.2009 2.207345,2.0186 2.985083,2.4532 0.789142,0.4232 1.572583,0.6347 2.350324,0.6347 0.972134,0 1.732701,-0.2859 2.281702,-0.8578 0.548959,-0.5832 0.823449,-1.2866 0.823471,-2.1101 -2.2e-5,-0.9035 -0.274512,-1.6469 -0.823471,-2.2302 -0.537565,-0.5947 -1.252383,-0.8921 -2.144456,-0.8921 -0.503251,0 -0.989329,0.091 -1.458231,0.2745 -0.468938,0.1715 -1.029355,0.4804 -1.681254,0.9264 -0.65193,0.4346 -1.429652,1.0351 -2.333168,1.8014 m -2.230234,0 c -0.823482,-0.6977 -1.5611747,-1.2695 -2.2130796,-1.7156 -0.6519234,-0.4575 -1.2237783,-0.7835 -1.7155649,-0.9779 -0.4918024,-0.1944 -1.0293462,-0.2916 -1.6126314,-0.2916 -0.8349137,0 -1.5268576,0.2916 -2.0758334,0.8749 -0.5489841,0.5833 -0.8234741,1.3267 -0.8234716,2.2302 -2.5e-6,0.629 0.1429606,1.1609 0.4288909,1.5955 0.2859245,0.4346 0.6347555,0.772 1.0464946,1.0122 0.4231687,0.2402 0.9492747,0.3602 1.5783204,0.3602 0.8234642,0 1.624061,-0.2172 2.4017912,-0.6519 0.777714,-0.4345 1.7727409,-1.2466 2.9850838,-2.436"
       id="text1326"
       inkscape:export-filename="/home/abraham/Escritorio/lemniscata.png"
       inkscape:export-xdpi="259.6308"
       inkscape:export-ydpi="259.6308" />
  </g>
</svg>
