<?xml version="1.0" encoding="UTF-8" standalone="no"?>
<!-- Created with Inkscape (http://www.inkscape.org/) -->

<svg
   xmlns:dc="http://purl.org/dc/elements/1.1/"
   xmlns:cc="http://creativecommons.org/ns#"
   xmlns:rdf="http://www.w3.org/1999/02/22-rdf-syntax-ns#"
   xmlns:svg="http://www.w3.org/2000/svg"
   xmlns="http://www.w3.org/2000/svg"
   xmlns:sodipodi="http://sodipodi.sourceforge.net/DTD/sodipodi-0.dtd"
   xmlns:inkscape="http://www.inkscape.org/namespaces/inkscape"
   width="64"
   height="64.000008"
   id="svg2"
   version="1.1"
   inkscape:version="0.48.3.1 r9886"
   inkscape:export-filename="/home/daniel/Projects/test1/data/media/logo.png"
   inkscape:export-xdpi="90"
   inkscape:export-ydpi="90"
   sodipodi:docname="kareldesktop.svg">
  <defs
     id="defs4" />
  <sodipodi:namedview
     id="base"
     pagecolor="#ffffff"
     bordercolor="#666666"
     borderopacity="1.0"
     inkscape:pageopacity="0.0"
     inkscape:pageshadow="2"
     inkscape:zoom="8"
     inkscape:cx="37.013172"
     inkscape:cy="38"
     inkscape:document-units="px"
     inkscape:current-layer="layer1"
     showgrid="false"
     fit-margin-top="0"
     fit-margin-left="0"
     fit-margin-right="0"
     fit-margin-bottom="0"
     showborder="true"
     inkscape:window-width="1366"
     inkscape:window-height="684"
     inkscape:window-x="0"
     inkscape:window-y="31"
     inkscape:window-maximized="1"
     borderlayer="true" />
  <metadata
     id="metadata7">
    <rdf:RDF>
      <cc:Work
         rdf:about="">
        <dc:format>image/svg+xml</dc:format>
        <dc:type
           rdf:resource="http://purl.org/dc/dcmitype/StillImage" />
        <dc:title />
      </cc:Work>
    </rdf:RDF>
  </metadata>
  <g
     inkscape:label="Layer 1"
     inkscape:groupmode="layer"
     id="layer1"
     transform="translate(-355.97817,-385.42867)">
    <path
       style="opacity:0.68539327;fill:#0000ff;fill-opacity:1;stroke:none"
       d="m 419.80104,447.80445 c 0.06,-0.21612 0.0902,-0.44132 0.0906,-0.68012 l 0.0569,-36.66503 -12.05948,-5.39591 -2.12858,4.47168 -11.10623,-14.49183 18.57919,-1.2087 -2.1383,4.46935 8.86165,3.97537 0.0213,-14.47384 c 0.002,-1.27359 -0.90919,-2.29523 -2.04627,-2.29679 l -59.80842,-0.0799 c -1.13711,-0.002 -2.04726,1.0213 -2.04913,2.29488 l -0.02,12.11781 7.81459,-2.73374 -1.71707,-4.64419 18.37074,2.77205 -12.36578,13.52156 -1.70492,-4.65128 -10.40893,3.64416 -0.0648,39.2902 c -0.002,1.27359 0.91891,2.29759 2.05601,2.29912 l 59.80602,0.0894 c 0.92388,0.001 1.7005,-0.68764 1.96096,-1.62422 z m -2.61158,-11.54725 -10.3462,10.12667 -11.46183,-9.16276 6.2201,-0.27943 -0.93254,-16.07685 9.37023,-0.41449 0.93254,16.07684 6.2177,-0.26998 z m -11.60528,-19.6654 -10.84232,-0.5711 -1.72539,28.22227 -16.32058,-0.85536 1.72778,-28.2317 -10.84232,-0.57109 20.03784,-15.93862 17.96499,17.9456 z m -29.73781,18.49982 -8.53375,8.35644 -9.45622,-7.55757 5.13442,-0.22957 -0.782,-13.2632 7.7332,-0.34681 0.76992,13.27029 5.13443,-0.22958 z"
       id="rect5347"
       inkscape:connector-curvature="0" />
  </g>
</svg>
